{
.appVersion = "3072";
DisplayStrings = (
"/ka-hira 123/ka-hira.pkna/ri-hira.pkna",
"/ka-hira/comma-han",
"123",
"1",
"",
"2",
"",
"3",
"",
"/ka-hira",
A,
"",
"",
"/ka-hira",
"/ka-hira",
"/ka-hira.pkna",
"/ka-hira/ri-hira",
"/A.rand2"
);
date = "2021-06-22 09:59:19 +0000";
familyName = "Feature Sans";
featurePrefixes = (
{
automatic = 1;
code = "languagesystem DFLT dflt;\012";
name = Languagesystems;
}
);
features = (
{
automatic = 1;
code = "feature twid;\012feature qwid;\012feature hwid;\012feature ital;\012feature hkna;\012";
name = aalt;
},
{
automatic = 1;
code = "sub one by one.twid;\012sub two by two.twid;\012sub three by three.twid;\012";
name = twid;
},
{
code = "sub one by one.qwid;\012sub two by two.qwid;\012sub three by three.qwid;\012";
name = qwid;
},
{
code = "pos comma-han <328 350 0 0>;";
name = cpct;
},
{
code = "sub one by one.hwid;\012sub two by two.hwid;\012sub three by three.hwid;\012";
name = hwid;
},
{
code = "sub one by one.ital;\012sub two by two.ital;\012sub three by three.ital;\012";
name = ital;
},
{
code = "sub ka-hira by ka-hira.hkna;";
name = hkna;
},
{
code = "sub ka-hira by ka-hira.pkna;\012sub ri-hira by ri-hira.pkna;";
name = pkna;
}
);
fontMaster = (
{
alignmentZones = (
"{800, 16}",
"{0, -16}",
"{0, -16}",
"{0, -16}",
"{-200, -16}"
);
ascender = 800;
capHeight = 0;
descender = -200;
id = m01;
userData = {
GSOffsetHorizontal = 5;
GSOffsetVertical = 5;
};
xHeight = 0;
}
);
glyphs = (
{
glyphname = A;
lastChange = "2021-07-14 08:25:01 +0000";
layers = (
{
layerId = m01;
paths = (
{
closed = 1;
nodes = (
"249 702 LINE",
"492 0 LINE",
"595 0 LINE",
"352 702 LINE"
);
},
{
closed = 1;
nodes = (
"5 0 LINE",
"108 0 LINE",
"351 702 LINE",
"248 702 LINE"
);
},
{
closed = 1;
nodes = (
"152 309 LINE",
"435 309 LINE",
"435 385 LINE",
"152 385 LINE"
);
}
);
width = 600;
}
);
unicode = 0041;
},
{
glyphname = A.rand1;
lastChange = "2021-07-14 08:25:10 +0000";
layers = (
{
layerId = m01;
paths = (
{
closed = 1;
nodes = (
"402 702 LINE",
"499 0 LINE",
"602 0 LINE",
"505 702 LINE"
);
},
{
closed = 1;
nodes = (
"12 0 LINE",
"115 0 LINE",
"504 702 LINE",
"401 702 LINE"
);
},
{
closed = 1;
nodes = (
"222 309 LINE",
"505 309 LINE",
"522 385 LINE",
"239 385 LINE"
);
}
);
width = 600;
}
);
},
{
color = 1;
glyphname = A.rand2;
lastChange = "2021-07-14 10:45:48 +0000";
layers = (
{
layerId = m01;
paths = (
{
closed = 1;
nodes = (
"591 11 LINE",
"590 15 LINE",
"589 16 OFFCURVE",
"589 18 OFFCURVE",
"588 19 CURVE",
"586 29 OFFCURVE",
"583 40 OFFCURVE",
"578 49 CURVE",
"544 148 LINE",
"534 184 OFFCURVE",
"524 219 OFFCURVE",
"514 234 CURVE",
"481 331 LINE SMOOTH",
"472 359 OFFCURVE",
"465 388 OFFCURVE",
"457 407 CURVE",
"444 463 OFFCURVE",
"430 515 OFFCURVE",
"417 528 CURVE",
"406 558 OFFCURVE",
"394 601 OFFCURVE",
"382 631 CURVE SMOOTH",
"380 638 OFFCURVE",
"377 645 OFFCURVE",
"374 653 CURVE SMOOTH",
"367 674 OFFCURVE",
"360 690 OFFCURVE",
"354 697 CURVE",
"353 701 OFFCURVE",
"353 701 OFFCURVE",
"352 702 CURVE SMOOTH",
"350 703 OFFCURVE",
"347 702 OFFCURVE",
"347 702 CURVE",
"257 702 LINE SMOOTH",
"251 702 OFFCURVE",
"250 703 OFFCURVE",
"249 702 CURVE SMOOTH",
"241 695 OFFCURVE",
"234 679 OFFCURVE",
"227 657 CURVE",
"227 657 OFFCURVE",
"226 656 OFFCURVE",
"226 655 CURVE",
"216 640 OFFCURVE",
"207 606 OFFCURVE",
"198 573 CURVE SMOOTH",
"190 549 OFFCURVE",
"182 523 OFFCURVE",
"174 496 CURVE",
"173 496 OFFCURVE",
"173 495 OFFCURVE",
"173 495 CURVE",
"159 481 OFFCURVE",
"139 407 OFFCURVE",
"120 331 CURVE",
"89 241 LINE",
"78 226 OFFCURVE",
"70 190 OFFCURVE",
"58 154 CURVE SMOOTH",
"39 97 LINE",
"36 92 OFFCURVE",
"34 85 OFFCURVE",
"32 78 CURVE SMOOTH",
"25 57 LINE",
"23 52 LINE SMOOTH",
"21 48 OFFCURVE",
"20 43 OFFCURVE",
"18 39 CURVE",
"9 12 LINE SMOOTH",
"8 10 OFFCURVE",
"6 6 OFFCURVE",
"5 2 CURVE",
"6 -6 OFFCURVE",
"13 -10 OFFCURVE",
"15 -14 CURVE SMOOTH",
"19 -23 OFFCURVE",
"22 -33 OFFCURVE",
"24 -37 CURVE SMOOTH",
"33 -62 LINE SMOOTH",
"35 -66 OFFCURVE",
"36 -70 OFFCURVE",
"39 -74 CURVE",
"39 -75 LINE SMOOTH",
"43 -109 OFFCURVE",
"46 -110 OFFCURVE",
"49 -80 CURVE",
"52 -79 OFFCURVE",
"54 -76 OFFCURVE",
"56 -74 CURVE",
"56 -73 OFFCURVE",
"57 -72 OFFCURVE",
"58 -71 CURVE SMOOTH",
"65 -61 OFFCURVE",
"73 -51 OFFCURVE",
"80 -40 CURVE SMOOTH",
"83 -36 OFFCURVE",
"85 -31 OFFCURVE",
"88 -26 CURVE SMOOTH",
"96 -12 LINE",
"97 -11 OFFCURVE",
"97 -9 OFFCURVE",
"98 -8 CURVE SMOOTH",
"104 0 LINE SMOOTH",
"106 3 OFFCURVE",
"100 -6 OFFCURVE",
"108 0 CURVE SMOOTH",
"110 2 OFFCURVE",
"110 5 OFFCURVE",
"111 8 CURVE SMOOTH",
"112 11 OFFCURVE",
"113 14 OFFCURVE",
"115 18 CURVE SMOOTH",
"119 29 OFFCURVE",
"123 39 OFFCURVE",
"126 50 CURVE SMOOTH",
"132 70 LINE",
"133 71 OFFCURVE",
"133 71 OFFCURVE",
"133 72 CURVE",
"135 74 OFFCURVE",
"137 77 OFFCURVE",
"140 82 CURVE",
"140 83 OFFCURVE",
"140 84 OFFCURVE",
"141 85 CURVE",
"150 103 OFFCURVE",
"158 125 OFFCURVE",
"164 146 CURVE SMOOTH",
"166 151 OFFCURVE",
"168 156 OFFCURVE",
"169 162 CURVE",
"182 193 OFFCURVE",
"197 244 OFFCURVE",
"212 298 CURVE",
"214 296 OFFCURVE",
"219 290 OFFCURVE",
"220 290 CURVE",
"222 288 OFFCURVE",
"223 285 OFFCURVE",
"225 282 CURVE SMOOTH",
"227 278 OFFCURVE",
"229 273 OFFCURVE",
"232 268 CURVE SMOOTH",
"233 266 OFFCURVE",
"235 264 OFFCURVE",
"237 262 CURVE SMOOTH",
"242 255 OFFCURVE",
"245 249 OFFCURVE",
"247 248 CURVE SMOOTH",
"253 246 OFFCURVE",
"256 252 OFFCURVE",
"260 254 CURVE SMOOTH",
"266 257 OFFCURVE",
"272 254 OFFCURVE",
"276 249 CURVE SMOOTH",
"285 235 OFFCURVE",
"289 217 OFFCURVE",
"295 201 CURVE SMOOTH",
"298 195 OFFCURVE",
"302 190 OFFCURVE",
"305 185 CURVE SMOOTH",
"317 170 LINE SMOOTH",
"320 167 OFFCURVE",
"321 165 OFFCURVE",
"323 164 CURVE",
"325 134 OFFCURVE",
"297 59 OFFCURVE",
"327 46 CURVE SMOOTH",
"357 34 OFFCURVE",
"329 131 OFFCURVE",
"331 161 CURVE",
"337 162 OFFCURVE",
"341 169 OFFCURVE",
"343 173 CURVE SMOOTH",
"352 187 OFFCURVE",
"356 204 OFFCURVE",
"367 216 CURVE SMOOTH",
"372 221 OFFCURVE",
"378 224 OFFCURVE",
"382 229 CURVE",
"383 229 OFFCURVE",
"383 230 OFFCURVE",
"383 230 CURVE",
"384 232 OFFCURVE",
"384 237 OFFCURVE",
"384 240 CURVE SMOOTH",
"385 252 OFFCURVE",
"385 263 OFFCURVE",
"386 275 CURVE SMOOTH",
"386 286 LINE",
"387 287 OFFCURVE",
"387 289 OFFCURVE",
"387 290 CURVE",
"389 282 OFFCURVE",
"392 275 OFFCURVE",
"394 269 CURVE SMOOTH",
"403 241 OFFCURVE",
"411 216 OFFCURVE",
"418 198 CURVE SMOOTH",
"431 159 OFFCURVE",
"442 129 OFFCURVE",
"450 121 CURVE",
"451 119 OFFCURVE",
"451 117 OFFCURVE",
"452 116 CURVE",
"455 105 LINE SMOOTH",
"460 87 OFFCURVE",
"468 69 OFFCURVE",
"474 51 CURVE SMOOTH",
"475 47 OFFCURVE",
"477 43 OFFCURVE",
"478 39 CURVE SMOOTH",
"482 28 OFFCURVE",
"485 17 OFFCURVE",
"489 7 CURVE",
"489 6 OFFCURVE",
"490 5 OFFCURVE",
"490 4 CURVE SMOOTH",
"490 3 OFFCURVE",
"491 1 OFFCURVE",
"492 0 CURVE",
"493 -3 OFFCURVE",
"493 -6 OFFCURVE",
"496 -7 CURVE SMOOTH",
"497 -7 OFFCURVE",
"498 -6 OFFCURVE",
"498 -4 CURVE SMOOTH",
"498 -5 OFFCURVE",
"499 -5 OFFCURVE",
"499 -5 CURVE",
"500 -8 OFFCURVE",
"501 -10 OFFCURVE",
"502 -11 CURVE",
"509 -24 OFFCURVE",
"515 -38 OFFCURVE",
"519 -52 CURVE SMOOTH",
"525 -75 LINE SMOOTH",
"529 -89 OFFCURVE",
"533 -103 OFFCURVE",
"538 -117 CURVE SMOOTH",
"539 -120 OFFCURVE",
"542 -129 OFFCURVE",
"545 -133 CURVE SMOOTH",
"546 -134 OFFCURVE",
"549 -137 OFFCURVE",
"551 -135 CURVE",
"555 -134 OFFCURVE",
"558 -128 OFFCURVE",
"559 -125 CURVE",
"564 -117 OFFCURVE",
"567 -107 OFFCURVE",
"570 -98 CURVE SMOOTH",
"573 -90 LINE SMOOTH",
"581 -69 OFFCURVE",
"584 -46 OFFCURVE",
"587 -24 CURVE SMOOTH",
"588 -19 OFFCURVE",
"588 -13 OFFCURVE",
"589 -8 CURVE SMOOTH",
"591 0 LINE",
"595 0 LINE"
);
},
{
closed = 1;
nodes = (
"286 513 LINE",
"289 519 OFFCURVE",
"292 528 OFFCURVE",
"296 538 CURVE SMOOTH",
"297 542 OFFCURVE",
"298 546 OFFCURVE",
"300 550 CURVE",
"306 527 OFFCURVE",
"309 524 OFFCURVE",
"314 513 CURVE",
"359 385 LINE",
"241 385 LINE"
);
}
);
width = 600;
}
);
},
{
color = 1;
glyphname = A.rand3;
lastChange = "2021-07-14 08:27:49 +0000";
layers = (
{
layerId = m01;
paths = (
{
closed = 1;
nodes = (
"619 7 OFFCURVE",
"576 140 OFFCURVE",
"510 116 CURVE",
"584 143 OFFCURVE",
"555 232 OFFCURVE",
"481 205 CURVE",
"549 230 OFFCURVE",
"511 347 OFFCURVE",
"443 322 CURVE",
"505 344 OFFCURVE",
"459 486 OFFCURVE",
"398 463 CURVE",
"463 487 OFFCURVE",
"442 552 OFFCURVE",
"377 527 CURVE",
"448 554 OFFCURVE",
"406 683 OFFCURVE",
"335 657 CURVE",
"317.218 721.342 OFFCURVE",
"240 697 OFFCURVE",
"257 632 CURVE",
"186 659 OFFCURVE",
"172 614 OFFCURVE",
"243 588 CURVE",
"178 612 OFFCURVE",
"155 543 OFFCURVE",
"221 519 CURVE",
"163 541 OFFCURVE",
"146 488 OFFCURVE",
"204 467 CURVE",
"138 491 OFFCURVE",
"117 427 OFFCURVE",
"183 402 CURVE",
"113 428 OFFCURVE",
"92 364 OFFCURVE",
"162 338 CURVE",
"100 361 OFFCURVE",
"84 312 OFFCURVE",
"146 289 CURVE",
"81 314 OFFCURVE",
"56 237 OFFCURVE",
"121 213 CURVE",
"51 239 OFFCURVE",
"8 105 OFFCURVE",
"78 80 CURVE",
"11 104 OFFCURVE",
"-2 64 OFFCURVE",
"65 39 CURVE",
"8 37 OFFCURVE",
"9 -19 OFFCURVE",
"67 -17 CURVE",
"137 -55 OFFCURVE",
"200 78 OFFCURVE",
"130 116 CURVE",
"199 90 OFFCURVE",
"213 134 OFFCURVE",
"144 160 CURVE",
"214 134 OFFCURVE",
"248 239 OFFCURVE",
"178 265 CURVE",
"210 210 OFFCURVE",
"282 259 OFFCURVE",
"250 313 CURVE",
"250 235 OFFCURVE",
"334 235 OFFCURVE",
"334 313 CURVE",
"310 250 OFFCURVE",
"394 213 OFFCURVE",
"418 277 CURVE",
"348 251 OFFCURVE",
"378 158 OFFCURVE",
"448 184 CURVE",
"387 162 OFFCURVE",
"403 113 OFFCURVE",
"463 136 CURVE",
"393 110 OFFCURVE",
"420 29 OFFCURVE",
"490 55 CURVE",
"430 33 OFFCURVE",
"452 -35 OFFCURVE",
"512 -13 CURVE"
);
},
{
closed = 1;
nodes = (
"262 627 OFFCURVE",
"285 555 OFFCURVE",
"323 569 CURVE",
"282 554 OFFCURVE",
"296 510 OFFCURVE",
"338 525 CURVE",
"306 514 OFFCURVE",
"338 414 OFFCURVE",
"370 426 CURVE",
"337 413 OFFCURVE",
"366 322 OFFCURVE",
"400 334 CURVE",
"398 371 OFFCURVE",
"336 367 OFFCURVE",
"338 330 CURVE",
"338 376 OFFCURVE",
"290 376 OFFCURVE",
"290 330 CURVE",
"290 376 OFFCURVE",
"254 376 OFFCURVE",
"254 330 CURVE",
"257 377 OFFCURVE",
"203 381 OFFCURVE",
"200 334 CURVE",
"236 321 OFFCURVE",
"266 412 OFFCURVE",
"230 426 CURVE",
"270 411 OFFCURVE",
"305 519 OFFCURVE",
"265 533 CURVE",
"303 519 OFFCURVE",
"326 591 OFFCURVE",
"288 605 CURVE"
);
}
);
width = 600;
}
);
},
{
glyphname = "ka-hira";
lastChange = "2021-06-22 10:28:33 +0000";
layers = (
{
layerId = m01;
paths = (
{
closed = 1;
nodes = (
"648 -67 OFFCURVE",
"754 71 OFFCURVE",
"754 275 CURVE SMOOTH",
"754 452 OFFCURVE",
"676 553 OFFCURVE",
"385 507 CURVE SMOOTH",
"354 502 OFFCURVE",
"313 497 OFFCURVE",
"270 492 CURVE SMOOTH",
"191 482 OFFCURVE",
"104 471 OFFCURVE",
"61 457 CURVE",
"96 336 LINE",
"151 351 OFFCURVE",
"260 366 OFFCURVE",
"367 380 CURVE SMOOTH",
"376 381 OFFCURVE",
"386 383 OFFCURVE",
"395 384 CURVE SMOOTH",
"406 385 OFFCURVE",
"417 386 OFFCURVE",
"428 388 CURVE SMOOTH",
"575 408 OFFCURVE",
"623 405 OFFCURVE",
"623 275 CURVE SMOOTH",
"623 161 OFFCURVE",
"587 66 OFFCURVE",
"519 66 CURVE SMOOTH",
"497 66 OFFCURVE",
"472 79 OFFCURVE",
"442 93 CURVE SMOOTH",
"433 97 OFFCURVE",
"423 102 OFFCURVE",
"411 107 CURVE",
"389 -7 LINE",
"423 -39 OFFCURVE",
"485 -67 OFFCURVE",
"525 -67 CURVE SMOOTH"
);
},
{
closed = 1;
nodes = (
"294 -77 OFFCURVE",
"354 196 OFFCURVE",
"406 424 CURVE SMOOTH",
"436 559 OFFCURVE",
"463 677 OFFCURVE",
"473 700 CURVE",
"464 711 LINE",
"450 710 OFFCURVE",
"423 709 OFFCURVE",
"394 708 CURVE SMOOTH",
"359 708 OFFCURVE",
"323 707 OFFCURVE",
"315 705 CURVE",
"326 656 OFFCURVE",
"211 92 OFFCURVE",
"151 21 CURVE",
"155 11 OFFCURVE",
"190 1 OFFCURVE",
"222 -7 CURVE SMOOTH",
"247 -13 OFFCURVE",
"270 -19 OFFCURVE",
"280 -25 CURVE"
);
},
{
closed = 1;
nodes = (
"958 416 LINE",
"915 515 OFFCURVE",
"847 590 OFFCURVE",
"757 640 CURVE",
"658 565 LINE",
"755 520 OFFCURVE",
"793 484 OFFCURVE",
"839 361 CURVE"
);
}
);
width = 1000;
}
);
unicode = 304B;
},
{
glyphname = "ri-hira";
lastChange = "2021-07-14 09:21:22 +0000";
layers = (
{
layerId = m01;
paths = (
{
closed = 1;
nodes = (
"247 554 OFFCURVE",
"235 388 OFFCURVE",
"282 264 CURVE",
"289 257 OFFCURVE",
"312 261 OFFCURVE",
"348 267 CURVE SMOOTH",
"350 267 OFFCURVE",
"387 277 OFFCURVE",
"409 276 CURVE",
"371 400 OFFCURVE",
"382 540 OFFCURVE",
"428 670 CURVE",
"420 682 LINE",
"379 681 OFFCURVE",
"416 681 OFFCURVE",
"350 683 CURVE SMOOTH",
"315 684 OFFCURVE",
"289 685 OFFCURVE",
"281 684 CURVE"
);
},
{
closed = 1;
nodes = (
"749 706 OFFCURVE",
"757 702 OFFCURVE",
"709 706 CURVE SMOOTH",
"683 708 OFFCURVE",
"653 710 OFFCURVE",
"639 712 CURVE",
"630 701 LINE",
"653 531 OFFCURVE",
"655 422 OFFCURVE",
"639 307 CURVE SMOOTH",
"616 141 OFFCURVE",
"579 87 OFFCURVE",
"418 39 CURVE",
"429 23 OFFCURVE",
"434 16 OFFCURVE",
"452 -13 CURVE SMOOTH",
"469 -41 OFFCURVE",
"478 -66 OFFCURVE",
"509 -63 CURVE",
"670 -23 OFFCURVE",
"734 67 OFFCURVE",
"775 272 CURVE SMOOTH",
"792 354 OFFCURVE",
"801 529 OFFCURVE",
"769 701 CURVE"
);
}
);
width = 1000;
}
);
unicode = 308A;
},
{
glyphname = "ka-hira.hkna";
lastChange = "2021-07-01 11:36:44 +0000";
layers = (
{
background = {
paths = (
{
closed = 1;
nodes = (
"648 -67 OFFCURVE",
"754 71 OFFCURVE",
"754 275 CURVE SMOOTH",
"754 452 OFFCURVE",
"676 553 OFFCURVE",
"385 507 CURVE SMOOTH",
"354 502 OFFCURVE",
"313 497 OFFCURVE",
"270 492 CURVE SMOOTH",
"191 482 OFFCURVE",
"104 471 OFFCURVE",
"61 457 CURVE",
"96 336 LINE",
"151 351 OFFCURVE",
"260 366 OFFCURVE",
"367 380 CURVE SMOOTH",
"376 381 OFFCURVE",
"386 383 OFFCURVE",
"395 384 CURVE SMOOTH",
"406 385 OFFCURVE",
"417 386 OFFCURVE",
"428 388 CURVE SMOOTH",
"575 408 OFFCURVE",
"623 405 OFFCURVE",
"623 275 CURVE SMOOTH",
"623 161 OFFCURVE",
"587 66 OFFCURVE",
"519 66 CURVE SMOOTH",
"497 66 OFFCURVE",
"472 79 OFFCURVE",
"442 93 CURVE SMOOTH",
"433 97 OFFCURVE",
"423 102 OFFCURVE",
"411 107 CURVE",
"389 -7 LINE",
"423 -39 OFFCURVE",
"485 -67 OFFCURVE",
"525 -67 CURVE SMOOTH"
);
},
{
closed = 1;
nodes = (
"294 -77 OFFCURVE",
"354 196 OFFCURVE",
"406 424 CURVE SMOOTH",
"436 559 OFFCURVE",
"463 677 OFFCURVE",
"473 700 CURVE",
"464 711 LINE",
"450 710 OFFCURVE",
"423 709 OFFCURVE",
"394 708 CURVE SMOOTH",
"359 708 OFFCURVE",
"323 707 OFFCURVE",
"315 705 CURVE",
"326 656 OFFCURVE",
"211 92 OFFCURVE",
"151 21 CURVE",
"155 11 OFFCURVE",
"190 1 OFFCURVE",
"222 -7 CURVE SMOOTH",
"247 -13 OFFCURVE",
"270 -19 OFFCURVE",
"280 -25 CURVE"
);
},
{
closed = 1;
nodes = (
"958 416 LINE",
"915 515 OFFCURVE",
"847 590 OFFCURVE",
"757 640 CURVE",
"658 565 LINE",
"755 520 OFFCURVE",
"793 484 OFFCURVE",
"839 361 CURVE"
);
}
);
};
layerId = m01;
paths = (
{
closed = 1;
nodes = (
"666 -36 OFFCURVE",
"754 106 OFFCURVE",
"754 290 CURVE SMOOTH",
"754 467 OFFCURVE",
"718 535 OFFCURVE",
"423 535 CURVE SMOOTH",
"392 535 OFFCURVE",
"111 537 OFFCURVE",
"68 523 CURVE",
"93 403 LINE",
"185 405 OFFCURVE",
"278 410 OFFCURVE",
"370 412 CURVE SMOOTH",
"593 417 OFFCURVE",
"623 403 OFFCURVE",
"623 290 CURVE SMOOTH",
"623 176 OFFCURVE",
"597 74 OFFCURVE",
"519 74 CURVE SMOOTH",
"501 74 OFFCURVE",
"445 79 OFFCURVE",
"411 96 CURVE",
"389 -18 LINE",
"433 -45 OFFCURVE",
"503 -52 OFFCURVE",
"554 -47 CURVE SMOOTH"
);
},
{
closed = 1;
nodes = (
"314 -77 OFFCURVE",
"318 211 OFFCURVE",
"360 439 CURVE SMOOTH",
"385 577 OFFCURVE",
"393 677 OFFCURVE",
"403 700 CURVE",
"394 711 LINE",
"380 710 OFFCURVE",
"353 709 OFFCURVE",
"324 708 CURVE SMOOTH",
"289 708 OFFCURVE",
"246 707 OFFCURVE",
"238 705 CURVE",
"249 656 OFFCURVE",
"194 92 OFFCURVE",
"164 21 CURVE",
"168 11 OFFCURVE",
"210 1 OFFCURVE",
"242 -7 CURVE SMOOTH",
"267 -13 OFFCURVE",
"290 -19 OFFCURVE",
"300 -25 CURVE"
);
},
{
closed = 1;
nodes = (
"967 368 LINE",
"949 467 OFFCURVE",
"847 605 OFFCURVE",
"757 640 CURVE",
"658 580 LINE",
"755 535 OFFCURVE",
"829 436 OFFCURVE",
"848 313 CURVE"
);
}
);
width = 1000;
}
);
},
{
glyphname = "ka-hira.pkna";
lastChange = "2021-07-14 09:11:11 +0000";
layers = (
{
layerId = m01;
paths = (
{
closed = 1;
nodes = (
"602 -67 OFFCURVE",
"708 71 OFFCURVE",
"708 275 CURVE SMOOTH",
"708 452 OFFCURVE",
"630 553 OFFCURVE",
"339 507 CURVE SMOOTH",
"308 502 OFFCURVE",
"267 497 OFFCURVE",
"224 492 CURVE SMOOTH",
"145 482 OFFCURVE",
"58 471 OFFCURVE",
"15 457 CURVE",
"50 336 LINE",
"105 351 OFFCURVE",
"214 366 OFFCURVE",
"321 380 CURVE SMOOTH",
"330 381 OFFCURVE",
"340 383 OFFCURVE",
"349 384 CURVE SMOOTH",
"360 385 OFFCURVE",
"371 386 OFFCURVE",
"382 388 CURVE SMOOTH",
"529 408 OFFCURVE",
"577 405 OFFCURVE",
"577 275 CURVE SMOOTH",
"577 161 OFFCURVE",
"541 66 OFFCURVE",
"473 66 CURVE SMOOTH",
"451 66 OFFCURVE",
"426 79 OFFCURVE",
"396 93 CURVE SMOOTH",
"387 97 OFFCURVE",
"377 102 OFFCURVE",
"365 107 CURVE",
"343 -7 LINE",
"377 -39 OFFCURVE",
"439 -67 OFFCURVE",
"479 -67 CURVE SMOOTH"
);
},
{
closed = 1;
nodes = (
"248 -77 OFFCURVE",
"308 196 OFFCURVE",
"360 424 CURVE SMOOTH",
"390 559 OFFCURVE",
"417 677 OFFCURVE",
"427 700 CURVE",
"418 711 LINE",
"404 710 OFFCURVE",
"377 709 OFFCURVE",
"348 708 CURVE SMOOTH",
"313 708 OFFCURVE",
"277 707 OFFCURVE",
"269 705 CURVE",
"280 656 OFFCURVE",
"165 92 OFFCURVE",
"105 21 CURVE",
"109 11 OFFCURVE",
"144 1 OFFCURVE",
"176 -7 CURVE SMOOTH",
"201 -13 OFFCURVE",
"224 -19 OFFCURVE",
"234 -25 CURVE"
);
},
{
closed = 1;
nodes = (
"912 416 LINE",
"869 515 OFFCURVE",
"801 590 OFFCURVE",
"711 640 CURVE",
"612 565 LINE",
"709 520 OFFCURVE",
"747 484 OFFCURVE",
"793 361 CURVE"
);
}
);
width = 934;
}
);
},
{
glyphname = "ri-hira.pkna";
lastChange = "2021-07-14 09:21:30 +0000";
layers = (
{
layerId = m01;
paths = (
{
closed = 1;
nodes = (
"61 554 OFFCURVE",
"49 388 OFFCURVE",
"96 264 CURVE",
"103 257 OFFCURVE",
"126 261 OFFCURVE",
"162 267 CURVE SMOOTH",
"164 267 OFFCURVE",
"201 277 OFFCURVE",
"223 276 CURVE",
"185 400 OFFCURVE",
"196 540 OFFCURVE",
"242 670 CURVE",
"234 682 LINE",
"208 681 OFFCURVE",
"220 681 OFFCURVE",
"164 683 CURVE SMOOTH",
"105 685 OFFCURVE",
"97 684 OFFCURVE",
"95 684 CURVE"
);
},
{
closed = 1;
nodes = (
"524 708 OFFCURVE",
"571 706 OFFCURVE",
"522 706 CURVE SMOOTH",
"515 706 OFFCURVE",
"517 706 OFFCURVE",
"453 712 CURVE",
"444 701 LINE",
"467 531 OFFCURVE",
"469 422 OFFCURVE",
"453 307 CURVE SMOOTH",
"430 141 OFFCURVE",
"393 87 OFFCURVE",
"232 39 CURVE",
"236 33 OFFCURVE",
"253 9 OFFCURVE",
"266 -13 CURVE SMOOTH",
"283 -41 OFFCURVE",
"292 -66 OFFCURVE",
"323 -63 CURVE",
"479 -28 OFFCURVE",
"555 80 OFFCURVE",
"589 271 CURVE SMOOTH",
"607 373 OFFCURVE",
"615 525 OFFCURVE",
"583 701 CURVE"
);
}
);
width = 649;
}
);
},
{
glyphname = one;
lastChange = "2021-06-22 10:16:28 +0000";
layers = (
{
layerId = m01;
paths = (
{
closed = 1;
nodes = (
"320 491 LINE",
"457 585 LINE",
"457 0 LINE",
"607 0 LINE",
"607 714 LINE",
"457 714 LINE",
"300 612 LINE"
);
}
);
width = 1000;
}
);
unicode = 0031;
},
{
glyphname = two;
lastChange = "2021-06-22 10:47:09 +0000";
layers = (
{
layerId = m01;
paths = (
{
closed = 1;
nodes = (
"558 353 OFFCURVE",
"417 204 OFFCURVE",
"325 107 CURVE",
"324 106 LINE",
"325 -20 LINE",
"734 -20 LINE",
"735 110 LINE",
"540 110 LINE",
"626 212 OFFCURVE",
"701 331 OFFCURVE",
"712 457 CURVE SMOOTH",
"725 607 OFFCURVE",
"643 715 OFFCURVE",
"497 718 CURVE SMOOTH",
"417 720 OFFCURVE",
"346 689 OFFCURVE",
"279 641 CURVE",
"365 528 LINE",
"411 567 OFFCURVE",
"446 578 OFFCURVE",
"491 578 CURVE SMOOTH",
"538 578 OFFCURVE",
"575 544 OFFCURVE",
"568 467 CURVE SMOOTH"
);
}
);
width = 1000;
}
);
unicode = 0032;
},
{
glyphname = three;
lastChange = "2021-06-22 10:41:34 +0000";
layers = (
{
background = {
paths = (
{
closed = 1;
nodes = (
"265 36 LINE",
"328 1 OFFCURVE",
"398 -20 OFFCURVE",
"468 -18 CURVE SMOOTH",
"588 -15 OFFCURVE",
"702 58 OFFCURVE",
"702 195 CURVE SMOOTH",
"702 235 OFFCURVE",
"688 306 OFFCURVE",
"610 339 CURVE",
"689 379 OFFCURVE",
"706 453 OFFCURVE",
"706 509 CURVE SMOOTH",
"706 624 OFFCURVE",
"634 715 OFFCURVE",
"507 718 CURVE SMOOTH",
"427 720 OFFCURVE",
"346 689 OFFCURVE",
"279 641 CURVE",
"365 538 LINE",
"411 577 OFFCURVE",
"446 588 OFFCURVE",
"491 588 CURVE SMOOTH",
"538 588 OFFCURVE",
"575 544 OFFCURVE",
"568 467 CURVE SMOOTH",
"562 405 OFFCURVE",
"516 398 OFFCURVE",
"444 398 CURVE SMOOTH",
"383 398 LINE",
"383 278 LINE",
"453 278 LINE SMOOTH",
"614 278 OFFCURVE",
"587 128 OFFCURVE",
"484 112 CURVE SMOOTH",
"437 105 OFFCURVE",
"372 117 OFFCURVE",
"322 151 CURVE"
);
}
);
};
layerId = m01;
paths = (
{
closed = 1;
nodes = (
"254 28 LINE",
"320 -4 OFFCURVE",
"393 -20 OFFCURVE",
"458 -18 CURVE SMOOTH",
"602 -13 OFFCURVE",
"702 79 OFFCURVE",
"702 195 CURVE SMOOTH",
"702 258 OFFCURVE",
"688 326 OFFCURVE",
"610 359 CURVE",
"689 399 OFFCURVE",
"706 493 OFFCURVE",
"706 529 CURVE SMOOTH",
"706 644 OFFCURVE",
"634 718 OFFCURVE",
"507 718 CURVE SMOOTH",
"429 718 OFFCURVE",
"346 689 OFFCURVE",
"279 641 CURVE",
"365 548 LINE",
"392 570 OFFCURVE",
"437 589 OFFCURVE",
"479 589 CURVE SMOOTH",
"527 589 OFFCURVE",
"571 563 OFFCURVE",
"570 491 CURVE SMOOTH",
"570 440 OFFCURVE",
"528 418 OFFCURVE",
"444 418 CURVE SMOOTH",
"383 418 LINE",
"383 298 LINE",
"453 298 LINE SMOOTH",
"590 298 OFFCURVE",
"620 132 OFFCURVE",
"484 112 CURVE SMOOTH",
"429 104 OFFCURVE",
"349 117 OFFCURVE",
"311 143 CURVE"
);
}
);
width = 1000;
}
);
unicode = 0033;
},
{
glyphname = one.hwid;
lastChange = "2021-06-22 12:02:39 +0000";
layers = (
{
layerId = m01;
paths = (
{
closed = 1;
nodes = (
"110 491 LINE",
"247 585 LINE",
"247 0 LINE",
"397 0 LINE",
"397 714 LINE",
"247 714 LINE",
"90 612 LINE"
);
}
);
width = 500;
}
);
},
{
glyphname = two.hwid;
lastChange = "2021-06-22 12:02:49 +0000";
layers = (
{
layerId = m01;
paths = (
{
closed = 1;
nodes = (
"308 353 OFFCURVE",
"167 204 OFFCURVE",
"75 107 CURVE",
"74 106 LINE",
"75 -20 LINE",
"484 -20 LINE",
"485 110 LINE",
"290 110 LINE",
"376 212 OFFCURVE",
"451 331 OFFCURVE",
"462 457 CURVE SMOOTH",
"475 607 OFFCURVE",
"393 715 OFFCURVE",
"247 718 CURVE SMOOTH",
"167 720 OFFCURVE",
"96 689 OFFCURVE",
"29 641 CURVE",
"115 528 LINE",
"161 567 OFFCURVE",
"196 578 OFFCURVE",
"241 578 CURVE SMOOTH",
"288 578 OFFCURVE",
"325 544 OFFCURVE",
"318 467 CURVE SMOOTH"
);
}
);
width = 500;
}
);
},
{
glyphname = three.hwid;
lastChange = "2021-06-22 12:02:59 +0000";
layers = (
{
layerId = m01;
paths = (
{
closed = 1;
nodes = (
"24 28 LINE",
"90 -4 OFFCURVE",
"163 -20 OFFCURVE",
"228 -18 CURVE SMOOTH",
"372 -13 OFFCURVE",
"472 79 OFFCURVE",
"472 195 CURVE SMOOTH",
"472 258 OFFCURVE",
"458 326 OFFCURVE",
"380 359 CURVE",
"459 399 OFFCURVE",
"476 493 OFFCURVE",
"476 529 CURVE SMOOTH",
"476 644 OFFCURVE",
"404 718 OFFCURVE",
"277 718 CURVE SMOOTH",
"199 718 OFFCURVE",
"116 689 OFFCURVE",
"49 641 CURVE",
"135 548 LINE",
"162 570 OFFCURVE",
"207 589 OFFCURVE",
"249 589 CURVE SMOOTH",
"297 589 OFFCURVE",
"341 563 OFFCURVE",
"340 491 CURVE SMOOTH",
"340 440 OFFCURVE",
"298 418 OFFCURVE",
"214 418 CURVE SMOOTH",
"153 418 LINE",
"153 298 LINE",
"223 298 LINE SMOOTH",
"360 298 OFFCURVE",
"390 132 OFFCURVE",
"254 112 CURVE SMOOTH",
"199 104 OFFCURVE",
"119 117 OFFCURVE",
"81 143 CURVE"
);
}
);
width = 500;
}
);
},
{
glyphname = one.ital;
lastChange = "2021-06-24 15:27:19 +0000";
layers = (
{
layerId = m01;
paths = (
{
closed = 1;
nodes = (
"327 491 LINE",
"489 585 LINE",
"332 0 LINE",
"482 0 LINE",
"674 714 LINE",
"524 714 LINE",
"339 612 LINE"
);
}
);
width = 1000;
}
);
},
{
glyphname = two.ital;
lastChange = "2021-06-24 15:24:07 +0000";
layers = (
{
layerId = m01;
paths = (
{
closed = 1;
nodes = (
"559 353 OFFCURVE",
"378 204 OFFCURVE",
"260 107 CURVE",
"259 106 LINE",
"226 -20 LINE",
"635 -20 LINE",
"671 110 LINE",
"476 110 LINE",
"589 212 OFFCURVE",
"696 331 OFFCURVE",
"741 457 CURVE SMOOTH",
"794 607 OFFCURVE",
"741 715 OFFCURVE",
"596 718 CURVE SMOOTH",
"516 720 OFFCURVE",
"437 689 OFFCURVE",
"357 641 CURVE",
"413 528 LINE",
"469 567 OFFCURVE",
"507 578 OFFCURVE",
"552 578 CURVE SMOOTH",
"599 578 OFFCURVE",
"627 544 OFFCURVE",
"600 467 CURVE SMOOTH"
);
}
);
width = 1000;
}
);
},
{
glyphname = three.ital;
lastChange = "2021-06-24 15:27:43 +0000";
layers = (
{
layerId = m01;
paths = (
{
closed = 1;
nodes = (
"202 28 LINE",
"260 -4 OFFCURVE",
"328 -20 OFFCURVE",
"394 -18 CURVE SMOOTH",
"539 -13 OFFCURVE",
"664 79 OFFCURVE",
"695 195 CURVE SMOOTH",
"712 258 OFFCURVE",
"716 326 OFFCURVE",
"647 359 CURVE",
"737 399 OFFCURVE",
"779 493 OFFCURVE",
"788 529 CURVE SMOOTH",
"819 644 OFFCURVE",
"767 718 OFFCURVE",
"640 718 CURVE SMOOTH",
"562 718 OFFCURVE",
"471 689 OFFCURVE",
"391 641 CURVE",
"453 548 LINE",
"485 570 OFFCURVE",
"536 589 OFFCURVE",
"578 589 CURVE SMOOTH",
"626 589 OFFCURVE",
"663 563 OFFCURVE",
"642 491 CURVE SMOOTH",
"629 440 OFFCURVE",
"581 418 OFFCURVE",
"497 418 CURVE SMOOTH",
"436 418 LINE",
"404 298 LINE",
"474 298 LINE SMOOTH",
"611 298 OFFCURVE",
"596 132 OFFCURVE",
"455 112 CURVE SMOOTH",
"398 104 OFFCURVE",
"321 117 OFFCURVE",
"290 143 CURVE"
);
}
);
width = 1000;
}
);
},
{
glyphname = one.qwid;
lastChange = "2021-06-22 11:03:49 +0000";
layers = (
{
layerId = m01;
paths = (
{
closed = 1;
nodes = (
"54 491 LINE",
"127 585 LINE",
"127 0 LINE",
"208 0 LINE",
"208 714 LINE",
"127 714 LINE",
"43 612 LINE"
);
}
);
width = 250;
}
);
},
{
glyphname = two.qwid;
lastChange = "2021-06-22 11:04:08 +0000";
layers = (
{
layerId = m01;
paths = (
{
closed = 1;
nodes = (
"131 353 OFFCURVE",
"73 204 OFFCURVE",
"33 107 CURVE",
"33 106 LINE",
"33 -20 LINE",
"209 -20 LINE",
"210 110 LINE",
"126 110 LINE",
"163 212 OFFCURVE",
"205 331 OFFCURVE",
"210 457 CURVE SMOOTH",
"216 607 OFFCURVE",
"181 715 OFFCURVE",
"118 718 CURVE SMOOTH",
"83 720 OFFCURVE",
"42 689 OFFCURVE",
"13 641 CURVE",
"48 528 LINE",
"67 567 OFFCURVE",
"82 578 OFFCURVE",
"101 578 CURVE SMOOTH",
"122 578 OFFCURVE",
"138 544 OFFCURVE",
"135 467 CURVE SMOOTH"
);
}
);
width = 250;
}
);
},
{
glyphname = three.qwid;
lastChange = "2021-06-22 11:04:31 +0000";
layers = (
{
layerId = m01;
paths = (
{
closed = 1;
nodes = (
"-15 28 LINE",
"23 -4 OFFCURVE",
"65 -20 OFFCURVE",
"102 -18 CURVE SMOOTH",
"184 -13 OFFCURVE",
"241 79 OFFCURVE",
"241 195 CURVE SMOOTH",
"241 258 OFFCURVE",
"233 326 OFFCURVE",
"189 359 CURVE",
"234 399 OFFCURVE",
"243 493 OFFCURVE",
"243 529 CURVE SMOOTH",
"243 644 OFFCURVE",
"202 718 OFFCURVE",
"129 718 CURVE SMOOTH",
"85 718 OFFCURVE",
"38 689 OFFCURVE",
"-1 641 CURVE",
"48 548 LINE",
"64 570 OFFCURVE",
"89 589 OFFCURVE",
"114 589 CURVE SMOOTH",
"141 589 OFFCURVE",
"166 563 OFFCURVE",
"166 491 CURVE SMOOTH",
"166 440 OFFCURVE",
"141 418 OFFCURVE",
"94 418 CURVE SMOOTH",
"58 418 LINE",
"58 298 LINE",
"99 298 LINE SMOOTH",
"177 298 OFFCURVE",
"194 132 OFFCURVE",
"116 112 CURVE SMOOTH",
"85 104 OFFCURVE",
"39 117 OFFCURVE",
"17 143 CURVE"
);
}
);
width = 250;
}
);
},
{
glyphname = one.twid;
lastChange = "2021-06-22 10:46:09 +0000";
layers = (
{
layerId = m01;
paths = (
{
closed = 1;
nodes = (
"61 491 LINE",
"181 585 LINE",
"181 0 LINE",
"314 0 LINE",
"314 714 LINE",
"181 714 LINE",
"43 612 LINE"
);
}
);
width = 350;
}
);
},
{
glyphname = two.twid;
lastChange = "2021-06-22 10:48:30 +0000";
layers = (
{
layerId = m01;
paths = (
{
closed = 1;
nodes = (
"210 353 OFFCURVE",
"113 204 OFFCURVE",
"47 107 CURVE",
"46 106 LINE",
"47 -20 LINE",
"342 -20 LINE",
"343 110 LINE",
"202 110 LINE",
"265 212 OFFCURVE",
"318 331 OFFCURVE",
"326 457 CURVE SMOOTH",
"336 607 OFFCURVE",
"295 715 OFFCURVE",
"189 718 CURVE SMOOTH",
"131 720 OFFCURVE",
"62 689 OFFCURVE",
"13 641 CURVE",
"71 528 LINE",
"104 567 OFFCURVE",
"129 578 OFFCURVE",
"161 578 CURVE SMOOTH",
"195 578 OFFCURVE",
"222 544 OFFCURVE",
"217 467 CURVE SMOOTH"
);
}
);
width = 350;
}
);
},
{
glyphname = three.twid;
lastChange = "2021-06-22 10:47:00 +0000";
layers = (
{
layerId = m01;
paths = (
{
closed = 1;
nodes = (
"15 28 LINE",
"63 -4 OFFCURVE",
"116 -20 OFFCURVE",
"163 -18 CURVE SMOOTH",
"267 -13 OFFCURVE",
"339 79 OFFCURVE",
"339 195 CURVE SMOOTH",
"339 258 OFFCURVE",
"329 326 OFFCURVE",
"273 359 CURVE",
"330 399 OFFCURVE",
"342 493 OFFCURVE",
"342 529 CURVE SMOOTH",
"342 644 OFFCURVE",
"290 718 OFFCURVE",
"198 718 CURVE SMOOTH",
"142 718 OFFCURVE",
"82 689 OFFCURVE",
"33 641 CURVE",
"95 548 LINE",
"115 570 OFFCURVE",
"147 589 OFFCURVE",
"178 589 CURVE SMOOTH",
"213 589 OFFCURVE",
"244 563 OFFCURVE",
"244 491 CURVE SMOOTH",
"244 440 OFFCURVE",
"213 418 OFFCURVE",
"153 418 CURVE SMOOTH",
"108 418 LINE",
"108 298 LINE",
"159 298 LINE SMOOTH",
"258 298 OFFCURVE",
"280 132 OFFCURVE",
"181 112 CURVE SMOOTH",
"142 104 OFFCURVE",
"84 117 OFFCURVE",
"56 143 CURVE"
);
}
);
width = 350;
}
);
},
{
glyphname = "comma-han";
lastChange = "2021-06-22 11:28:30 +0000";
layers = (
{
layerId = m01;
paths = (
{
closed = 1;
nodes = (
"418 -75 LINE",
"355 4 OFFCURVE",
"286 81 OFFCURVE",
"217 149 CURVE",
"118 74 LINE",
"195 9 OFFCURVE",
"233 -27 OFFCURVE",
"299 -130 CURVE"
);
}
);
width = 1000;
}
);
unicode = 3001;
},
